<mxfile host="app.diagrams.net" modified="2024-03-14T02:05:53.639Z" agent="Mozilla/5.0 (Windows NT 10.0; Win64; x64) AppleWebKit/537.36 (KHTML, like Gecko) Chrome/122.0.0.0 Safari/537.36" etag="I-pocTMLzl7_X3CuJpz8" version="24.0.6" type="github">
  <diagram name="第 1 页" id="S-6OjkVsCnSg2azHZJY5">
    <mxGraphModel dx="2261" dy="1918" grid="1" gridSize="10" guides="1" tooltips="1" connect="1" arrows="1" fold="1" page="1" pageScale="1" pageWidth="827" pageHeight="1169" math="0" shadow="0">
      <root>
        <mxCell id="0" />
        <mxCell id="1" parent="0" />
        <mxCell id="T84RrNcwuwcVCLzUbH3B-3" value="" style="shape=umlLifeline;perimeter=lifelinePerimeter;whiteSpace=wrap;html=1;container=1;dropTarget=0;collapsible=0;recursiveResize=0;outlineConnect=0;portConstraint=eastwest;newEdgeStyle={&quot;curved&quot;:0,&quot;rounded&quot;:0};participant=umlActor;" parent="1" vertex="1">
          <mxGeometry x="69" y="50" width="20" height="920" as="geometry" />
        </mxCell>
        <mxCell id="T84RrNcwuwcVCLzUbH3B-10" value="" style="endArrow=none;dashed=1;html=1;rounded=0;" parent="1" edge="1">
          <mxGeometry width="50" height="50" relative="1" as="geometry">
            <mxPoint x="199" y="960" as="sourcePoint" />
            <mxPoint x="199" y="90" as="targetPoint" />
          </mxGeometry>
        </mxCell>
        <mxCell id="T84RrNcwuwcVCLzUbH3B-11" value="" style="endArrow=none;dashed=1;html=1;rounded=0;" parent="1" edge="1">
          <mxGeometry width="50" height="50" relative="1" as="geometry">
            <mxPoint x="519" y="950" as="sourcePoint" />
            <mxPoint x="519" y="90" as="targetPoint" />
          </mxGeometry>
        </mxCell>
        <mxCell id="T84RrNcwuwcVCLzUbH3B-12" value="" style="endArrow=none;dashed=1;html=1;rounded=0;" parent="1" edge="1">
          <mxGeometry width="50" height="50" relative="1" as="geometry">
            <mxPoint x="359" y="950" as="sourcePoint" />
            <mxPoint x="359" y="90" as="targetPoint" />
          </mxGeometry>
        </mxCell>
        <mxCell id="T84RrNcwuwcVCLzUbH3B-4" value="" style="html=1;points=[[0,0,0,0,5],[0,1,0,0,-5],[1,0,0,0,5],[1,1,0,0,-5]];perimeter=orthogonalPerimeter;outlineConnect=0;targetShapes=umlLifeline;portConstraint=eastwest;newEdgeStyle={&quot;curved&quot;:0,&quot;rounded&quot;:0};" parent="1" vertex="1">
          <mxGeometry x="194" y="120" width="10" height="820" as="geometry" />
        </mxCell>
        <mxCell id="T84RrNcwuwcVCLzUbH3B-5" value="1、查询" style="html=1;verticalAlign=bottom;endArrow=block;curved=0;rounded=0;entryX=0;entryY=0;entryDx=0;entryDy=5;" parent="1" target="T84RrNcwuwcVCLzUbH3B-4" edge="1">
          <mxGeometry relative="1" as="geometry">
            <mxPoint x="79" y="125" as="sourcePoint" />
          </mxGeometry>
        </mxCell>
        <mxCell id="T84RrNcwuwcVCLzUbH3B-6" value="return" style="html=1;verticalAlign=bottom;endArrow=open;dashed=1;endSize=8;curved=0;rounded=0;exitX=0;exitY=1;exitDx=0;exitDy=-5;" parent="1" edge="1">
          <mxGeometry relative="1" as="geometry">
            <mxPoint x="78.5" y="929.9999999999945" as="targetPoint" />
            <mxPoint x="194" y="929.9999999999945" as="sourcePoint" />
          </mxGeometry>
        </mxCell>
        <mxCell id="T84RrNcwuwcVCLzUbH3B-23" value="" style="html=1;points=[[0,0,0,0,5],[0,1,0,0,-5],[1,0,0,0,5],[1,1,0,0,-5]];perimeter=orthogonalPerimeter;outlineConnect=0;targetShapes=umlLifeline;portConstraint=eastwest;newEdgeStyle={&quot;curved&quot;:0,&quot;rounded&quot;:0};" parent="1" vertex="1">
          <mxGeometry x="354" y="330" width="10" height="150" as="geometry" />
        </mxCell>
        <mxCell id="T84RrNcwuwcVCLzUbH3B-24" value="3、框架统一数据查询" style="html=1;verticalAlign=bottom;endArrow=block;curved=0;rounded=0;entryX=0;entryY=0;entryDx=0;entryDy=5;" parent="1" edge="1">
          <mxGeometry relative="1" as="geometry">
            <mxPoint x="204" y="347.0000000000002" as="sourcePoint" />
            <mxPoint x="354" y="347.0000000000002" as="targetPoint" />
            <mxPoint as="offset" />
          </mxGeometry>
        </mxCell>
        <mxCell id="T84RrNcwuwcVCLzUbH3B-25" value="return" style="html=1;verticalAlign=bottom;endArrow=open;dashed=1;endSize=8;curved=0;rounded=0;exitX=0;exitY=1;exitDx=0;exitDy=-5;entryX=1;entryY=0.433;entryDx=0;entryDy=0;entryPerimeter=0;" parent="1" source="T84RrNcwuwcVCLzUbH3B-23" target="T84RrNcwuwcVCLzUbH3B-4" edge="1">
          <mxGeometry relative="1" as="geometry">
            <mxPoint x="204" y="594.9999999999998" as="targetPoint" />
          </mxGeometry>
        </mxCell>
        <mxCell id="T84RrNcwuwcVCLzUbH3B-29" value="" style="html=1;points=[[0,0,0,0,5],[0,1,0,0,-5],[1,0,0,0,5],[1,1,0,0,-5]];perimeter=orthogonalPerimeter;outlineConnect=0;targetShapes=umlLifeline;portConstraint=eastwest;newEdgeStyle={&quot;curved&quot;:0,&quot;rounded&quot;:0};" parent="1" vertex="1">
          <mxGeometry x="354" y="165" width="10" height="135" as="geometry" />
        </mxCell>
        <mxCell id="T84RrNcwuwcVCLzUbH3B-30" value="1、处理查询条件、查询字段" style="html=1;verticalAlign=bottom;endArrow=block;curved=0;rounded=0;entryX=0;entryY=0;entryDx=0;entryDy=5;" parent="1" target="T84RrNcwuwcVCLzUbH3B-29" edge="1">
          <mxGeometry relative="1" as="geometry">
            <mxPoint x="204" y="170" as="sourcePoint" />
          </mxGeometry>
        </mxCell>
        <mxCell id="T84RrNcwuwcVCLzUbH3B-31" value="return" style="html=1;verticalAlign=bottom;endArrow=open;dashed=1;endSize=8;curved=0;rounded=0;exitX=0;exitY=1;exitDx=0;exitDy=-5;" parent="1" source="T84RrNcwuwcVCLzUbH3B-29" target="T84RrNcwuwcVCLzUbH3B-4" edge="1">
          <mxGeometry relative="1" as="geometry">
            <mxPoint x="204" y="240" as="targetPoint" />
          </mxGeometry>
        </mxCell>
        <mxCell id="sjRXnx2SvlVrv_pFDzfb-4" value="" style="edgeStyle=elbowEdgeStyle;elbow=horizontal;endArrow=classic;html=1;curved=0;rounded=0;endSize=8;startSize=8;" parent="1" edge="1">
          <mxGeometry width="50" height="50" relative="1" as="geometry">
            <mxPoint x="369" y="255" as="sourcePoint" />
            <mxPoint x="364" y="208" as="targetPoint" />
            <Array as="points">
              <mxPoint x="459" y="208" />
            </Array>
          </mxGeometry>
        </mxCell>
        <mxCell id="sjRXnx2SvlVrv_pFDzfb-5" value="2、递归查询下级数据" style="text;html=1;align=center;verticalAlign=middle;resizable=0;points=[];autosize=1;strokeColor=none;fillColor=none;" parent="1" vertex="1">
          <mxGeometry x="389" y="217.5" width="140" height="30" as="geometry" />
        </mxCell>
        <mxCell id="sjRXnx2SvlVrv_pFDzfb-6" value="停止递归条件&lt;br&gt;1、生效任职的主管字段上不存在改员工&lt;br&gt;2、员工主管的生效任职是兼职&lt;br&gt;3、达到展开层级&lt;br&gt;&lt;div&gt;&lt;br&gt;&lt;/div&gt;" style="whiteSpace=wrap;html=1;shape=mxgraph.basic.cloud_callout" parent="1" vertex="1">
          <mxGeometry x="489" y="90" width="270" height="118" as="geometry" />
        </mxCell>
        <mxCell id="sjRXnx2SvlVrv_pFDzfb-7" value="架构图数据查询" style="shape=umlFrame;whiteSpace=wrap;html=1;pointerEvents=0;width=150;height=30;" parent="1" vertex="1">
          <mxGeometry x="-20" y="-10" width="850" height="1050" as="geometry" />
        </mxCell>
      </root>
    </mxGraphModel>
  </diagram>
</mxfile>
